<?xml version="1.0" encoding="us-ascii" standalone="no"?><svg xmlns="http://www.w3.org/2000/svg" xmlns:xlink="http://www.w3.org/1999/xlink" contentStyleType="text/css" height="1283px" preserveAspectRatio="none" style="width:1234px;height:1283px;background:#FFFFFF;" version="1.1" viewBox="0 0 1234 1283" width="1234px" zoomAndPan="magnify"><defs/><g><rect fill="none" height="950.0547" style="stroke:#000000;stroke-width:1.5;" width="1217.5" x="10" y="234.0156"/><rect fill="none" height="719.7578" style="stroke:#000000;stroke-width:1.5;" width="1197.5" x="20" y="457.3125"/><rect fill="none" height="489.4609" style="stroke:#000000;stroke-width:1.5;" width="1177.5" x="30" y="680.6094"/><line style="stroke:#181818;stroke-width:0.5;stroke-dasharray:5.0,5.0;" x1="58" x2="58" y1="82.6094" y2="1201.0703"/><line style="stroke:#181818;stroke-width:0.5;stroke-dasharray:5.0,5.0;" x1="265" x2="265" y1="82.6094" y2="1201.0703"/><line style="stroke:#181818;stroke-width:0.5;stroke-dasharray:5.0,5.0;" x1="609" x2="609" y1="82.6094" y2="1201.0703"/><line style="stroke:#181818;stroke-width:0.5;stroke-dasharray:5.0,5.0;" x1="897" x2="897" y1="82.6094" y2="1201.0703"/><line style="stroke:#181818;stroke-width:0.5;stroke-dasharray:5.0,5.0;" x1="1094.5" x2="1094.5" y1="82.6094" y2="1201.0703"/><line style="stroke:#181818;stroke-width:0.5;stroke-dasharray:5.0,5.0;" x1="1163.5" x2="1163.5" y1="82.6094" y2="1201.0703"/><text fill="#000000" font-family="sans-serif" font-size="14" lengthAdjust="spacing" textLength="30" x="40" y="79.5332">Gast</text><ellipse cx="58" cy="13.5" fill="#E2E2F0" rx="8" ry="8" style="stroke:#181818;stroke-width:0.5;"/><path d="M58,21.5 L58,48.5 M45,29.5 L71,29.5 M58,48.5 L45,63.5 M58,48.5 L71,63.5 " fill="none" style="stroke:#181818;stroke-width:0.5;"/><text fill="#000000" font-family="sans-serif" font-size="14" lengthAdjust="spacing" textLength="30" x="40" y="1214.6035">Gast</text><ellipse cx="58" cy="1226.1797" fill="#E2E2F0" rx="8" ry="8" style="stroke:#181818;stroke-width:0.5;"/><path d="M58,1234.1797 L58,1261.1797 M45,1242.1797 L71,1242.1797 M58,1261.1797 L45,1276.1797 M58,1261.1797 L71,1276.1797 " fill="none" style="stroke:#181818;stroke-width:0.5;"/><text fill="#000000" font-family="sans-serif" font-size="14" lengthAdjust="spacing" textLength="72" x="226" y="61.9238">AuthRouter</text><text fill="#000000" font-family="sans-serif" font-size="14" lengthAdjust="spacing" textLength="74" x="225" y="79.5332">/api/auth.py</text><path d="M244.5,19.3906 L244.5,43.3906 M244.5,31.3906 L261.5,31.3906 " fill="none" style="stroke:#181818;stroke-width:0.5;"/><ellipse cx="273.5" cy="31.3906" fill="#E2E2F0" rx="12" ry="12" style="stroke:#181818;stroke-width:0.5;"/><text fill="#000000" font-family="sans-serif" font-size="14" lengthAdjust="spacing" textLength="72" x="226" y="1214.6035">AuthRouter</text><text fill="#000000" font-family="sans-serif" font-size="14" lengthAdjust="spacing" textLength="74" x="225" y="1232.2129">/api/auth.py</text><path d="M244.5,1239.2891 L244.5,1263.2891 M244.5,1251.2891 L261.5,1251.2891 " fill="none" style="stroke:#181818;stroke-width:0.5;"/><ellipse cx="273.5" cy="1251.2891" fill="#E2E2F0" rx="12" ry="12" style="stroke:#181818;stroke-width:0.5;"/><text fill="#000000" font-family="sans-serif" font-size="14" lengthAdjust="spacing" textLength="90" x="561" y="61.9238">Authentication</text><text fill="#000000" font-family="sans-serif" font-size="14" lengthAdjust="spacing" textLength="124" x="544" y="79.5332">authenticate_user()</text><ellipse cx="609" cy="31.3906" fill="#E2E2F0" rx="12" ry="12" style="stroke:#181818;stroke-width:0.5;"/><polygon fill="#181818" points="605,19.3906,611,14.3906,609,19.3906,611,24.3906,605,19.3906" style="stroke:#181818;stroke-width:1.0;"/><text fill="#000000" font-family="sans-serif" font-size="14" lengthAdjust="spacing" textLength="90" x="561" y="1214.6035">Authentication</text><text fill="#000000" font-family="sans-serif" font-size="14" lengthAdjust="spacing" textLength="124" x="544" y="1232.2129">authenticate_user()</text><ellipse cx="609" cy="1251.2891" fill="#E2E2F0" rx="12" ry="12" style="stroke:#181818;stroke-width:0.5;"/><polygon fill="#181818" points="605,1239.2891,611,1234.2891,609,1239.2891,611,1244.2891,605,1239.2891" style="stroke:#181818;stroke-width:1.0;"/><text fill="#000000" font-family="sans-serif" font-size="14" lengthAdjust="spacing" textLength="86" x="851" y="79.5332">LoginSecurity</text><ellipse cx="897" cy="49" fill="#E2E2F0" rx="12" ry="12" style="stroke:#181818;stroke-width:0.5;"/><polygon fill="#181818" points="893,37,899,32,897,37,899,42,893,37" style="stroke:#181818;stroke-width:1.0;"/><text fill="#000000" font-family="sans-serif" font-size="14" lengthAdjust="spacing" textLength="86" x="851" y="1214.6035">LoginSecurity</text><ellipse cx="897" cy="1233.6797" fill="#E2E2F0" rx="12" ry="12" style="stroke:#181818;stroke-width:0.5;"/><polygon fill="#181818" points="893,1221.6797,899,1216.6797,897,1221.6797,899,1226.6797,893,1221.6797" style="stroke:#181818;stroke-width:1.0;"/><text fill="#000000" font-family="sans-serif" font-size="14" lengthAdjust="spacing" textLength="43" x="1070.5" y="79.5332">SQLite</text><path d="M1077,29 C1077,19 1095,19 1095,19 C1095,19 1113,19 1113,29 L1113,55 C1113,65 1095,65 1095,65 C1095,65 1077,65 1077,55 L1077,29 " fill="#E2E2F0" style="stroke:#181818;stroke-width:1.5;"/><path d="M1077,29 C1077,39 1095,39 1095,39 C1095,39 1113,39 1113,29 " fill="none" style="stroke:#181818;stroke-width:1.5;"/><text fill="#000000" font-family="sans-serif" font-size="14" lengthAdjust="spacing" textLength="43" x="1070.5" y="1214.6035">SQLite</text><path d="M1077,1227.6797 C1077,1217.6797 1095,1217.6797 1095,1217.6797 C1095,1217.6797 1113,1217.6797 1113,1227.6797 L1113,1253.6797 C1113,1263.6797 1095,1263.6797 1095,1263.6797 C1095,1263.6797 1077,1263.6797 1077,1253.6797 L1077,1227.6797 " fill="#E2E2F0" style="stroke:#181818;stroke-width:1.5;"/><path d="M1077,1227.6797 C1077,1237.6797 1095,1237.6797 1095,1237.6797 C1095,1237.6797 1113,1237.6797 1113,1227.6797 " fill="none" style="stroke:#181818;stroke-width:1.5;"/><rect fill="#E2E2F0" height="31.6094" style="stroke:#181818;stroke-width:0.5;" width="64" x="1133.5" y="46"/><rect fill="#E2E2F0" height="31.6094" style="stroke:#181818;stroke-width:0.5;" width="64" x="1129.5" y="50"/><text fill="#000000" font-family="sans-serif" font-size="14" lengthAdjust="spacing" textLength="50" x="1136.5" y="71.5332">Session</text><rect fill="#E2E2F0" height="31.6094" style="stroke:#181818;stroke-width:0.5;" width="64" x="1133.5" y="1200.0703"/><rect fill="#E2E2F0" height="31.6094" style="stroke:#181818;stroke-width:0.5;" width="64" x="1129.5" y="1204.0703"/><text fill="#000000" font-family="sans-serif" font-size="14" lengthAdjust="spacing" textLength="50" x="1136.5" y="1225.6035">Session</text><polygon fill="#181818" points="253,110.9609,263,114.9609,253,118.9609,257,114.9609" style="stroke:#181818;stroke-width:1.0;"/><line style="stroke:#181818;stroke-width:1.0;" x1="58" x2="259" y1="114.9609" y2="114.9609"/><text fill="#000000" font-family="sans-serif" font-size="13" font-weight="bold" lengthAdjust="spacing" textLength="7" x="65" y="110.1045">1</text><text fill="#000000" font-family="sans-serif" font-size="13" lengthAdjust="spacing" textLength="172" x="76" y="110.1045">POST /login(email, password)</text><polygon fill="#181818" points="597,141.3125,607,145.3125,597,149.3125,601,145.3125" style="stroke:#181818;stroke-width:1.0;"/><line style="stroke:#181818;stroke-width:1.0;" x1="265" x2="603" y1="145.3125" y2="145.3125"/><text fill="#000000" font-family="sans-serif" font-size="13" font-weight="bold" lengthAdjust="spacing" textLength="7" x="272" y="140.4561">2</text><text fill="#000000" font-family="sans-serif" font-size="13" lengthAdjust="spacing" textLength="309" x="283" y="140.4561">authenticate_user(session, request, email, password)</text><line style="stroke:#181818;stroke-width:1.0;" x1="609" x2="651" y1="175.6641" y2="175.6641"/><line style="stroke:#181818;stroke-width:1.0;" x1="651" x2="651" y1="175.6641" y2="188.6641"/><line style="stroke:#181818;stroke-width:1.0;" x1="610" x2="651" y1="188.6641" y2="188.6641"/><polygon fill="#181818" points="620,184.6641,610,188.6641,620,192.6641,616,188.6641" style="stroke:#181818;stroke-width:1.0;"/><text fill="#000000" font-family="sans-serif" font-size="13" font-weight="bold" lengthAdjust="spacing" textLength="7" x="616" y="170.8076">3</text><text fill="#000000" font-family="sans-serif" font-size="13" lengthAdjust="spacing" textLength="129" x="627" y="170.8076">identifier normalisieren</text><polygon fill="#181818" points="885,215.0156,895,219.0156,885,223.0156,889,219.0156" style="stroke:#181818;stroke-width:1.0;"/><line style="stroke:#181818;stroke-width:1.0;" x1="609" x2="891" y1="219.0156" y2="219.0156"/><text fill="#000000" font-family="sans-serif" font-size="13" font-weight="bold" lengthAdjust="spacing" textLength="7" x="616" y="214.1592">4</text><text fill="#000000" font-family="sans-serif" font-size="13" lengthAdjust="spacing" textLength="119" x="627" y="214.1592">login_rate_limited(ip)</text><path d="M10,234.0156 L71,234.0156 L71,242.3672 L61,252.3672 L10,252.3672 L10,234.0156 " fill="#EEEEEE" style="stroke:#000000;stroke-width:1.5;"/><rect fill="none" height="950.0547" style="stroke:#000000;stroke-width:1.5;" width="1217.5" x="10" y="234.0156"/><text fill="#000000" font-family="sans-serif" font-size="13" font-weight="bold" lengthAdjust="spacing" textLength="16" x="25" y="248.5107">alt</text><text fill="#000000" font-family="sans-serif" font-size="11" font-weight="bold" lengthAdjust="spacing" textLength="102" x="86" y="247.4346">[IP ist rate-limited]</text><polygon fill="#181818" points="885,270.7188,895,274.7188,885,278.7188,889,274.7188" style="stroke:#181818;stroke-width:1.0;"/><line style="stroke:#181818;stroke-width:1.0;" x1="609" x2="891" y1="274.7188" y2="274.7188"/><text fill="#000000" font-family="sans-serif" font-size="13" font-weight="bold" lengthAdjust="spacing" textLength="7" x="616" y="269.8623">5</text><text fill="#000000" font-family="sans-serif" font-size="13" lengthAdjust="spacing" textLength="208" x="627" y="269.8623">audit_login_attempt(..., rate_limited)</text><polygon fill="#181818" points="1083,301.0703,1093,305.0703,1083,309.0703,1087,305.0703" style="stroke:#181818;stroke-width:1.0;"/><line style="stroke:#181818;stroke-width:1.0;" x1="897" x2="1089" y1="305.0703" y2="305.0703"/><text fill="#000000" font-family="sans-serif" font-size="13" font-weight="bold" lengthAdjust="spacing" textLength="7" x="904" y="300.2139">6</text><text fill="#000000" font-family="sans-serif" font-size="13" lengthAdjust="spacing" textLength="121" x="915" y="300.2139">LoginAudit speichern</text><polygon fill="#181818" points="276,331.4219,266,335.4219,276,339.4219,272,335.4219" style="stroke:#181818;stroke-width:1.0;"/><line style="stroke:#181818;stroke-width:1.0;stroke-dasharray:2.0,2.0;" x1="270" x2="608" y1="335.4219" y2="335.4219"/><text fill="#000000" font-family="sans-serif" font-size="13" font-weight="bold" lengthAdjust="spacing" textLength="7" x="282" y="330.5654">7</text><text fill="#000000" font-family="sans-serif" font-size="13" lengthAdjust="spacing" textLength="187" x="293" y="330.5654">Fehler "Zu viele Login-Versuche"</text><polygon fill="#181818" points="69,361.7734,59,365.7734,69,369.7734,65,365.7734" style="stroke:#181818;stroke-width:1.0;"/><line style="stroke:#181818;stroke-width:1.0;stroke-dasharray:2.0,2.0;" x1="63" x2="264" y1="365.7734" y2="365.7734"/><text fill="#000000" font-family="sans-serif" font-size="13" font-weight="bold" lengthAdjust="spacing" textLength="7" x="75" y="360.917">8</text><text fill="#000000" font-family="sans-serif" font-size="13" lengthAdjust="spacing" textLength="157" x="86" y="360.917">Redirect auf /login?error=...</text><line style="stroke:#000000;stroke-width:1.0;stroke-dasharray:2.0,2.0;" x1="10" x2="1227.5" y1="374.7734" y2="374.7734"/><text fill="#000000" font-family="sans-serif" font-size="11" font-weight="bold" lengthAdjust="spacing" textLength="115" x="15" y="386.1924">[IP nicht rate-limited]</text><polygon fill="#181818" points="885,407.9609,895,411.9609,885,415.9609,889,411.9609" style="stroke:#181818;stroke-width:1.0;"/><line style="stroke:#181818;stroke-width:1.0;" x1="609" x2="891" y1="411.9609" y2="411.9609"/><text fill="#000000" font-family="sans-serif" font-size="13" font-weight="bold" lengthAdjust="spacing" textLength="7" x="616" y="407.1045">9</text><text fill="#000000" font-family="sans-serif" font-size="13" lengthAdjust="spacing" textLength="164" x="627" y="407.1045">is_account_locked(identifier)</text><polygon fill="#181818" points="1083,438.3125,1093,442.3125,1083,446.3125,1087,442.3125" style="stroke:#181818;stroke-width:1.0;"/><line style="stroke:#181818;stroke-width:1.0;" x1="897" x2="1089" y1="442.3125" y2="442.3125"/><text fill="#000000" font-family="sans-serif" font-size="13" font-weight="bold" lengthAdjust="spacing" textLength="14" x="904" y="437.4561">10</text><text fill="#000000" font-family="sans-serif" font-size="13" lengthAdjust="spacing" textLength="145" x="922" y="437.4561">LoginSecurityState lesen</text><path d="M20,457.3125 L81,457.3125 L81,465.6641 L71,475.6641 L20,475.6641 L20,457.3125 " fill="#EEEEEE" style="stroke:#000000;stroke-width:1.5;"/><rect fill="none" height="719.7578" style="stroke:#000000;stroke-width:1.5;" width="1197.5" x="20" y="457.3125"/><text fill="#000000" font-family="sans-serif" font-size="13" font-weight="bold" lengthAdjust="spacing" textLength="16" x="35" y="471.8076">alt</text><text fill="#000000" font-family="sans-serif" font-size="11" font-weight="bold" lengthAdjust="spacing" textLength="109" x="96" y="470.7314">[Konto ist gesperrt]</text><polygon fill="#181818" points="885,494.0156,895,498.0156,885,502.0156,889,498.0156" style="stroke:#181818;stroke-width:1.0;"/><line style="stroke:#181818;stroke-width:1.0;" x1="609" x2="891" y1="498.0156" y2="498.0156"/><text fill="#000000" font-family="sans-serif" font-size="13" font-weight="bold" lengthAdjust="spacing" textLength="14" x="616" y="493.1592">11</text><text fill="#000000" font-family="sans-serif" font-size="13" lengthAdjust="spacing" textLength="183" x="634" y="493.1592">register_failed_login_attempt(ip)</text><polygon fill="#181818" points="885,524.3672,895,528.3672,885,532.3672,889,528.3672" style="stroke:#181818;stroke-width:1.0;"/><line style="stroke:#181818;stroke-width:1.0;" x1="609" x2="891" y1="528.3672" y2="528.3672"/><text fill="#000000" font-family="sans-serif" font-size="13" font-weight="bold" lengthAdjust="spacing" textLength="14" x="616" y="523.5107">12</text><text fill="#000000" font-family="sans-serif" font-size="13" lengthAdjust="spacing" textLength="232" x="634" y="523.5107">audit_login_attempt(..., account_locked)</text><polygon fill="#181818" points="1083,554.7188,1093,558.7188,1083,562.7188,1087,558.7188" style="stroke:#181818;stroke-width:1.0;"/><line style="stroke:#181818;stroke-width:1.0;" x1="897" x2="1089" y1="558.7188" y2="558.7188"/><text fill="#000000" font-family="sans-serif" font-size="13" font-weight="bold" lengthAdjust="spacing" textLength="14" x="904" y="553.8623">13</text><text fill="#000000" font-family="sans-serif" font-size="13" lengthAdjust="spacing" textLength="121" x="922" y="553.8623">LoginAudit speichern</text><polygon fill="#181818" points="276,585.0703,266,589.0703,276,593.0703,272,589.0703" style="stroke:#181818;stroke-width:1.0;"/><line style="stroke:#181818;stroke-width:1.0;stroke-dasharray:2.0,2.0;" x1="270" x2="608" y1="589.0703" y2="589.0703"/><text fill="#000000" font-family="sans-serif" font-size="13" font-weight="bold" lengthAdjust="spacing" textLength="14" x="282" y="584.2139">14</text><text fill="#000000" font-family="sans-serif" font-size="13" lengthAdjust="spacing" textLength="135" x="300" y="584.2139">Fehler "Konto gesperrt"</text><polygon fill="#181818" points="69,615.4219,59,619.4219,69,623.4219,65,619.4219" style="stroke:#181818;stroke-width:1.0;"/><line style="stroke:#181818;stroke-width:1.0;stroke-dasharray:2.0,2.0;" x1="63" x2="264" y1="619.4219" y2="619.4219"/><text fill="#000000" font-family="sans-serif" font-size="13" font-weight="bold" lengthAdjust="spacing" textLength="14" x="75" y="614.5654">15</text><text fill="#000000" font-family="sans-serif" font-size="13" lengthAdjust="spacing" textLength="157" x="93" y="614.5654">Redirect auf /login?error=...</text><line style="stroke:#000000;stroke-width:1.0;stroke-dasharray:2.0,2.0;" x1="20" x2="1217.5" y1="628.4219" y2="628.4219"/><text fill="#000000" font-family="sans-serif" font-size="11" font-weight="bold" lengthAdjust="spacing" textLength="122" x="25" y="639.8408">[Konto nicht gesperrt]</text><polygon fill="#181818" points="1083,661.6094,1093,665.6094,1083,669.6094,1087,665.6094" style="stroke:#181818;stroke-width:1.0;"/><line style="stroke:#181818;stroke-width:1.0;" x1="609" x2="1089" y1="665.6094" y2="665.6094"/><text fill="#000000" font-family="sans-serif" font-size="13" font-weight="bold" lengthAdjust="spacing" textLength="14" x="616" y="660.7529">16</text><text fill="#000000" font-family="sans-serif" font-size="13" lengthAdjust="spacing" textLength="135" x="634" y="660.7529">User nach E-Mail laden</text><path d="M30,680.6094 L91,680.6094 L91,688.9609 L81,698.9609 L30,698.9609 L30,680.6094 " fill="#EEEEEE" style="stroke:#000000;stroke-width:1.5;"/><rect fill="none" height="489.4609" style="stroke:#000000;stroke-width:1.5;" width="1177.5" x="30" y="680.6094"/><text fill="#000000" font-family="sans-serif" font-size="13" font-weight="bold" lengthAdjust="spacing" textLength="16" x="45" y="695.1045">alt</text><text fill="#000000" font-family="sans-serif" font-size="11" font-weight="bold" lengthAdjust="spacing" textLength="207" x="106" y="694.0283">[Benutzer fehlt oder Passwort falsch]</text><polygon fill="#181818" points="885,717.3125,895,721.3125,885,725.3125,889,721.3125" style="stroke:#181818;stroke-width:1.0;"/><line style="stroke:#181818;stroke-width:1.0;" x1="609" x2="891" y1="721.3125" y2="721.3125"/><text fill="#000000" font-family="sans-serif" font-size="13" font-weight="bold" lengthAdjust="spacing" textLength="14" x="616" y="716.4561">17</text><text fill="#000000" font-family="sans-serif" font-size="13" lengthAdjust="spacing" textLength="183" x="634" y="716.4561">register_failed_login_attempt(ip)</text><polygon fill="#181818" points="885,747.6641,895,751.6641,885,755.6641,889,751.6641" style="stroke:#181818;stroke-width:1.0;"/><line style="stroke:#181818;stroke-width:1.0;" x1="609" x2="891" y1="751.6641" y2="751.6641"/><text fill="#000000" font-family="sans-serif" font-size="13" font-weight="bold" lengthAdjust="spacing" textLength="14" x="616" y="746.8076">18</text><text fill="#000000" font-family="sans-serif" font-size="13" lengthAdjust="spacing" textLength="167" x="634" y="746.8076">record_login_failure(identifier)</text><polygon fill="#181818" points="1083,778.0156,1093,782.0156,1083,786.0156,1087,782.0156" style="stroke:#181818;stroke-width:1.0;"/><line style="stroke:#181818;stroke-width:1.0;" x1="897" x2="1089" y1="782.0156" y2="782.0156"/><text fill="#000000" font-family="sans-serif" font-size="13" font-weight="bold" lengthAdjust="spacing" textLength="14" x="904" y="777.1592">19</text><text fill="#000000" font-family="sans-serif" font-size="13" lengthAdjust="spacing" textLength="144" x="922" y="777.1592">Sperrstatus aktualisieren</text><polygon fill="#181818" points="885,808.3672,895,812.3672,885,816.3672,889,812.3672" style="stroke:#181818;stroke-width:1.0;"/><line style="stroke:#181818;stroke-width:1.0;" x1="609" x2="891" y1="812.3672" y2="812.3672"/><text fill="#000000" font-family="sans-serif" font-size="13" font-weight="bold" lengthAdjust="spacing" textLength="14" x="616" y="807.5107">20</text><text fill="#000000" font-family="sans-serif" font-size="13" lengthAdjust="spacing" textLength="246" x="634" y="807.5107">audit_login_attempt(..., invalid_credentials)</text><polygon fill="#181818" points="1083,838.7188,1093,842.7188,1083,846.7188,1087,842.7188" style="stroke:#181818;stroke-width:1.0;"/><line style="stroke:#181818;stroke-width:1.0;" x1="897" x2="1089" y1="842.7188" y2="842.7188"/><text fill="#000000" font-family="sans-serif" font-size="13" font-weight="bold" lengthAdjust="spacing" textLength="14" x="904" y="837.8623">21</text><text fill="#000000" font-family="sans-serif" font-size="13" lengthAdjust="spacing" textLength="121" x="922" y="837.8623">LoginAudit speichern</text><polygon fill="#181818" points="276,869.0703,266,873.0703,276,877.0703,272,873.0703" style="stroke:#181818;stroke-width:1.0;"/><line style="stroke:#181818;stroke-width:1.0;stroke-dasharray:2.0,2.0;" x1="270" x2="608" y1="873.0703" y2="873.0703"/><text fill="#000000" font-family="sans-serif" font-size="13" font-weight="bold" lengthAdjust="spacing" textLength="14" x="282" y="868.2139">22</text><text fill="#000000" font-family="sans-serif" font-size="13" lengthAdjust="spacing" textLength="230" x="300" y="868.2139">Fehler "E-Mail oder Passwort ist falsch"</text><polygon fill="#181818" points="69,899.4219,59,903.4219,69,907.4219,65,903.4219" style="stroke:#181818;stroke-width:1.0;"/><line style="stroke:#181818;stroke-width:1.0;stroke-dasharray:2.0,2.0;" x1="63" x2="264" y1="903.4219" y2="903.4219"/><text fill="#000000" font-family="sans-serif" font-size="13" font-weight="bold" lengthAdjust="spacing" textLength="14" x="75" y="898.5654">23</text><text fill="#000000" font-family="sans-serif" font-size="13" lengthAdjust="spacing" textLength="157" x="93" y="898.5654">Redirect auf /login?error=...</text><line style="stroke:#000000;stroke-width:1.0;stroke-dasharray:2.0,2.0;" x1="30" x2="1207.5" y1="912.4219" y2="912.4219"/><text fill="#000000" font-family="sans-serif" font-size="11" font-weight="bold" lengthAdjust="spacing" textLength="183" x="35" y="923.8408">[Benutzer und Passwort korrekt]</text><polygon fill="#181818" points="885,945.6094,895,949.6094,885,953.6094,889,949.6094" style="stroke:#181818;stroke-width:1.0;"/><line style="stroke:#181818;stroke-width:1.0;" x1="609" x2="891" y1="949.6094" y2="949.6094"/><text fill="#000000" font-family="sans-serif" font-size="13" font-weight="bold" lengthAdjust="spacing" textLength="14" x="616" y="944.7529">24</text><text fill="#000000" font-family="sans-serif" font-size="13" lengthAdjust="spacing" textLength="167" x="634" y="944.7529">reset_login_failures(identifier)</text><polygon fill="#181818" points="1083,975.9609,1093,979.9609,1083,983.9609,1087,979.9609" style="stroke:#181818;stroke-width:1.0;"/><line style="stroke:#181818;stroke-width:1.0;" x1="897" x2="1089" y1="979.9609" y2="979.9609"/><text fill="#000000" font-family="sans-serif" font-size="13" font-weight="bold" lengthAdjust="spacing" textLength="14" x="904" y="975.1045">25</text><text fill="#000000" font-family="sans-serif" font-size="13" lengthAdjust="spacing" textLength="156" x="922" y="975.1045">Sperrstatus zuruecksetzen</text><polygon fill="#181818" points="885,1006.3125,895,1010.3125,885,1014.3125,889,1010.3125" style="stroke:#181818;stroke-width:1.0;"/><line style="stroke:#181818;stroke-width:1.0;" x1="609" x2="891" y1="1010.3125" y2="1010.3125"/><text fill="#000000" font-family="sans-serif" font-size="13" font-weight="bold" lengthAdjust="spacing" textLength="14" x="616" y="1005.4561">26</text><text fill="#000000" font-family="sans-serif" font-size="13" lengthAdjust="spacing" textLength="224" x="634" y="1005.4561">audit_login_attempt(..., login_success)</text><polygon fill="#181818" points="1083,1036.6641,1093,1040.6641,1083,1044.6641,1087,1040.6641" style="stroke:#181818;stroke-width:1.0;"/><line style="stroke:#181818;stroke-width:1.0;" x1="897" x2="1089" y1="1040.6641" y2="1040.6641"/><text fill="#000000" font-family="sans-serif" font-size="13" font-weight="bold" lengthAdjust="spacing" textLength="14" x="904" y="1035.8076">27</text><text fill="#000000" font-family="sans-serif" font-size="13" lengthAdjust="spacing" textLength="121" x="922" y="1035.8076">LoginAudit speichern</text><polygon fill="#181818" points="276,1067.0156,266,1071.0156,276,1075.0156,272,1071.0156" style="stroke:#181818;stroke-width:1.0;"/><line style="stroke:#181818;stroke-width:1.0;stroke-dasharray:2.0,2.0;" x1="270" x2="608" y1="1071.0156" y2="1071.0156"/><text fill="#000000" font-family="sans-serif" font-size="13" font-weight="bold" lengthAdjust="spacing" textLength="14" x="282" y="1066.1592">28</text><text fill="#000000" font-family="sans-serif" font-size="13" lengthAdjust="spacing" textLength="153" x="300" y="1066.1592">AuthenticationResult(user)</text><polygon fill="#181818" points="1151.5,1097.3672,1161.5,1101.3672,1151.5,1105.3672,1155.5,1101.3672" style="stroke:#181818;stroke-width:1.0;"/><line style="stroke:#181818;stroke-width:1.0;" x1="265" x2="1157.5" y1="1101.3672" y2="1101.3672"/><text fill="#000000" font-family="sans-serif" font-size="13" font-weight="bold" lengthAdjust="spacing" textLength="14" x="272" y="1096.5107">29</text><text fill="#000000" font-family="sans-serif" font-size="13" lengthAdjust="spacing" textLength="86" x="290" y="1096.5107">Session leeren</text><polygon fill="#181818" points="1151.5,1127.7188,1161.5,1131.7188,1151.5,1135.7188,1155.5,1131.7188" style="stroke:#181818;stroke-width:1.0;"/><line style="stroke:#181818;stroke-width:1.0;" x1="265" x2="1157.5" y1="1131.7188" y2="1131.7188"/><text fill="#000000" font-family="sans-serif" font-size="13" font-weight="bold" lengthAdjust="spacing" textLength="14" x="272" y="1126.8623">30</text><text fill="#000000" font-family="sans-serif" font-size="13" lengthAdjust="spacing" textLength="205" x="290" y="1126.8623">user_id und last_seen_at speichern</text><polygon fill="#181818" points="69,1158.0703,59,1162.0703,69,1166.0703,65,1162.0703" style="stroke:#181818;stroke-width:1.0;"/><line style="stroke:#181818;stroke-width:1.0;stroke-dasharray:2.0,2.0;" x1="63" x2="264" y1="1162.0703" y2="1162.0703"/><text fill="#000000" font-family="sans-serif" font-size="13" font-weight="bold" lengthAdjust="spacing" textLength="14" x="75" y="1157.2139">31</text><text fill="#000000" font-family="sans-serif" font-size="13" lengthAdjust="spacing" textLength="137" x="93" y="1157.2139">Redirect auf /dashboard</text><!--SRC=[jPLDRnen48Rl-oj6d402Se_KL8tILbLJDGrj3rMabR47riBOT6mdIdvzn-iDor8e4AM74A_jUUVZ6Tj-eUrAa5Y2huHo3zhEOIQCnqB4u6nSJf6AGiZW23uA7ugfYrO9UeJUknYgMnS3qfqz4ojznXRLUFNO0-6XNIoaiu6SoGPeWvOYQ6Vlh6Y_iOmUgJzOsxRxMljhDzTsWZAI3jbBPwPG8eYfy0YzoRTh7R3USdN90iQWJ5gUbz1x7jLhpNZ2oM5HfFHWTB4HEfp3pTV9TpWpoKyVbqAR8Qo4zm-ErA3OsDdOjM6pxT_v-Unm28I_8_emX9sQ6ogxTBLAdpFDRgsZfJ3QynZj3jjEWTYqJgIa593HIwwHwklLW06R09zkG7C5qkAeMIm03ckAg7Geix880PUhq1-FnqFOT3DWgQuXArrTidaz-ovfW5-XbXMItU5t6ym7h0mFUhyYt6iqc7L6Fv5yP8rU8_6CXyrhlkTmYqeJjmF7FMl8laKYHsyuw0AvzLCbB0VoWbfeNmef-OYaWiX5AkyQre4IFCzE0Zi5Wvw1iaKYyvbFWAlXp95hH1HuuPXm2ETiXLJEkCjGRK5Av8_JsOkucsoMEmdpyQ1p4PuBq5lRdaeOe6QSvJBc0rMju__Xqt4JieBteozSJJ12PKAPqINQ69vupupZ3U0K3s_ogGxrZIghUk_hOJjEIVAjqWWajKYurPBxaKrIKJotO_GW5Y6s5ysnxlVsZRRthAPAILW7m_NvTonxs-Vu1cguTScaGvNfz3RaJk-ffglMNS2FPEjauOXm4KwWvZ5qeVaNKNkA554kMEtfDQZbARvV9RzZ_urNT_qMVJIXdvxFmGv25vr7FAMVF_a2tUhKlHP9kjIgHcQOTkaHK-8x0p_K6KhuQke4gTmJDlrFl-dl3m00]--></g></svg>